<svg width="34" height="34" viewBox="0 0 34 34" fill="none" xmlns="http://www.w3.org/2000/svg">
<g clip-path="url(#clip0)">
<path d="M0.789854 34C0.598936 34 0.413206 33.9245 0.275465 33.7852C0.0938856 33.6016 0.0238478 33.3349 0.0920698 33.0856L2.30241 25.0141C0.926298 22.5257 0.200758 19.7107 0.201796 16.8532C0.205687 7.5602 7.76822 0 17.0604 0C21.5675 0.0018158 25.8024 1.75743 28.9855 4.94286C32.1681 8.12854 33.9201 12.3632 33.9188 16.8667C33.9146 26.1599 26.3521 33.7206 17.0604 33.7206C17.0604 33.7206 17.0534 33.7206 17.0532 33.7206C14.3391 33.7196 11.6483 33.0581 9.2525 31.8052L0.97325 33.9764C0.91255 33.9922 0.850813 34 0.789854 34Z" fill="#E5E5E5"/>
<path d="M0.790039 33.2765L3.07898 24.9179C1.66707 22.4715 0.924408 19.6965 0.925446 16.8534C0.929077 7.95941 8.16684 0.723465 17.0606 0.723465C21.3765 0.725281 25.4275 2.40515 28.4739 5.45413C31.5201 8.50311 33.1971 12.556 33.1955 16.8664C33.1916 25.7602 25.9528 32.9972 17.0606 32.9972C17.0601 32.9972 17.0609 32.9972 17.0606 32.9972H17.0536C14.3533 32.9961 11.7001 32.3188 9.34348 31.0335L0.790039 33.2765ZM9.73958 28.1134L10.2296 28.4037C12.2882 29.6255 14.6485 30.2717 17.0554 30.2729H17.0606C24.4519 30.2729 30.4679 24.258 30.471 16.8654C30.4723 13.2828 29.0788 9.91399 26.5468 7.37991C24.0146 4.84584 20.6478 3.44949 17.0655 3.44794C9.66824 3.44794 3.65251 9.46211 3.64966 16.8545C3.64862 19.3878 4.3573 21.8547 5.69995 23.9895L6.01901 24.4969L4.66391 29.4442L9.73958 28.1134Z" fill="white"/>
<path d="M1.35107 32.7134L3.5609 24.6437C2.19749 22.2822 1.48077 19.6028 1.48155 16.8586C1.48492 8.27251 8.47237 1.28714 17.0577 1.28714C21.2247 1.28896 25.1357 2.91072 28.076 5.85413C31.017 8.79753 32.6357 12.7101 32.6341 16.8708C32.6305 25.4572 25.6428 32.4433 17.0585 32.4433C17.0577 32.4433 17.0587 32.4433 17.0585 32.4433H17.0515C14.4448 32.4423 11.8832 31.7881 9.60828 30.5482L1.35107 32.7134Z" fill="#64B161"/>
<path d="M0.790039 33.2765L3.07898 24.9179C1.66707 22.4715 0.924408 19.6965 0.925446 16.8534C0.929077 7.95941 8.16684 0.723465 17.0606 0.723465C21.3765 0.725281 25.4275 2.40515 28.4739 5.45413C31.5201 8.50311 33.1971 12.556 33.1955 16.8664C33.1916 25.7602 25.9528 32.9972 17.0606 32.9972C17.0601 32.9972 17.0609 32.9972 17.0606 32.9972H17.0536C14.3533 32.9961 11.7001 32.3188 9.34348 31.0335L0.790039 33.2765ZM9.73958 28.1134L10.2296 28.4037C12.2882 29.6255 14.6485 30.2717 17.0554 30.2729H17.0606C24.4519 30.2729 30.4679 24.258 30.471 16.8654C30.4723 13.2828 29.0788 9.91399 26.5468 7.37991C24.0146 4.84584 20.6478 3.44949 17.0655 3.44794C9.66824 3.44794 3.65251 9.46211 3.64966 16.8545C3.64862 19.3878 4.3573 21.8547 5.69995 23.9895L6.01901 24.4969L4.66391 29.4442L9.73958 28.1134Z" fill="white"/>
<path fill-rule="evenodd" clip-rule="evenodd" d="M13.028 10.1101C12.7261 9.43877 12.4081 9.42528 12.1206 9.41361C11.8856 9.40349 11.6166 9.40401 11.3482 9.40401C11.0794 9.40401 10.6426 9.50517 10.2732 9.90854C9.90356 10.3119 8.86182 11.2872 8.86182 13.2709C8.86182 15.2548 10.3067 17.1715 10.5082 17.4407C10.7098 17.7097 13.2973 21.9104 17.395 23.5265C20.8007 24.8697 21.4935 24.6025 22.2328 24.5353C22.9721 24.4681 24.618 23.56 24.9539 22.6186C25.2901 21.6772 25.2901 20.8705 25.1892 20.7016C25.0883 20.5338 24.8195 20.4329 24.4164 20.2313C24.0133 20.0298 22.0313 19.0542 21.6616 18.9198C21.292 18.7852 21.0232 18.7183 20.7545 19.1219C20.4855 19.525 19.7135 20.4329 19.4782 20.7016C19.243 20.9711 19.0077 21.0049 18.6046 20.8031C18.2015 20.601 16.9029 20.1756 15.3626 18.802C14.1642 17.7336 13.3549 16.4138 13.1196 16.0101C12.8846 15.607 13.1157 15.4078 13.2968 15.1876C13.6228 14.791 14.1699 14.0779 14.3043 13.8091C14.4386 13.5399 14.3715 13.3046 14.2708 13.1028C14.1699 12.9012 13.3863 10.9075 13.028 10.1101Z" fill="white"/>
</g>
<defs>
<clipPath id="clip0">
<rect width="34" height="34" fill="white"/>
</clipPath>
</defs>
</svg>
