<svg xmlns="http://www.w3.org/2000/svg" viewBox="0 0 418.1 418.1"><defs/><g fill="#7ad06d"><path d="M199 .2A207.7 207.7 0 0024.2 301.6l-22 106.8A8 8 0 0012 418l104.7-24.8a207.8 207.8 0 00299.6-179C420.1 93 320.3-5.6 199 .1zm124.9 322A161.3 161.3 0 01209 369.8c-25.4 0-49.7-5.7-72.3-17l-14.6-7.2L58 360.8l13.5-65.6-7.2-14.1a160.6 160.6 0 01-17.6-73.7A162.7 162.7 0 01323.9 92.6a162.7 162.7 0 010 229.6z"/><path d="M309.7 252.4l-40.2-11.6a15 15 0 00-14.8 4l-9.8 10a14.6 14.6 0 01-16 3.3c-19-7.7-58.9-43.2-69-61-3-5.1-2.5-11.6 1-16.2l8.6-11.1a15 15 0 001.9-15.2l-17-38.3a15 15 0 00-23.3-5.3c-11.2 9.5-24.5 23.9-26.1 39.8-2.9 28.2 9.2 63.7 54.8 106.3 52.8 49.2 95 55.7 122.5 49 15.6-3.8 28-19 36-31.3a15 15 0 00-8.6-22.4z"/></g></svg>