<svg width="59" height="59" viewBox="0 0 59 59" fill="none" xmlns="http://www.w3.org/2000/svg">
<path d="M38 47H40V54H38V47Z" fill="#252626"/>
<path d="M41 47H43V54H41V47Z" fill="#252626"/>
<path d="M51 33V14H49V5H47V3H45V5H43V1H41V6H40V3H38V6L36 7V14H34V23H27V10H23V5H21V1H12V5H10V10H7V27C5.0951 27.9092 3.31166 29.8368 3 32H1V58H58V32L51 33ZM38 8L47 7V14H38V8ZM36 16H49V33L43 34V39L41 35L38 39V23H36V16ZM36 27H23V25H36V27ZM36 45H45V56H36V45ZM37 43L41 38L44 43H37ZM14 3H19V5H14V3ZM12 7H21V10H12V7ZM8 12H25V23H21V27C20.1625 26.601 18.9874 27 18 27H9C8.68742 27 8.30155 26.9568 8 27V12ZM9 29H18C20.2193 29 22.5725 29.9048 23 32H5C5.4275 29.9048 6.78068 29 9 29ZM25 34V36H3V34H25ZM21 51H18V47H21V51ZM16 51H12V47H16V51ZM16 52V56H12V52H16ZM18 52H21V56H18V52ZM21 45H18V41H21V45ZM16 45H12V41H16V45ZM10 45H7V41H10V45ZM7 47H10V51H7V47ZM7 52H10V56H7V52ZM23 56V40H5V56H3V38H25V56H23ZM25 32C24.8014 30.6191 23.9322 29.9525 23 29H36V41L34 44V56H27V32H25ZM56 56H47V44L45 41V36L56 34V56Z" fill="#252626"/>
<path d="M29 30H31V32H29V30Z" fill="#252626"/>
<path d="M29 52H31V54H29V52Z" fill="#252626"/>
<path d="M29 34H31V36H29V34Z" fill="#252626"/>
<path d="M29 49H31V51H29V49Z" fill="#252626"/>
<path d="M29 41H31V43H29V41Z" fill="#252626"/>
<path d="M29 38H31V40H29V38Z" fill="#252626"/>
<path d="M29 45H31V47H29V45Z" fill="#252626"/>
<path d="M32 38H34V40H32V38Z" fill="#252626"/>
<path d="M32 34H34V36H32V34Z" fill="#252626"/>
<path d="M32 30H34V32H32V30Z" fill="#252626"/>
<path d="M52 52H54V54H52V52Z" fill="#252626"/>
<path d="M52 45H54V47H52V45Z" fill="#252626"/>
<path d="M52 49H54V51H52V49Z" fill="#252626"/>
<path d="M52 41H54V43H52V41Z" fill="#252626"/>
<path d="M52 38H54V40H52V38Z" fill="#252626"/>
<path d="M49 49H51V51H49V49Z" fill="#252626"/>
<path d="M49 38H51V40H49V38Z" fill="#252626"/>
<path d="M49 45H51V47H49V45Z" fill="#252626"/>
<path d="M49 52H51V54H49V52Z" fill="#252626"/>
<path d="M49 41H51V43H49V41Z" fill="#252626"/>
<path d="M21 14H23V16H21V14Z" fill="#252626"/>
<path d="M18 14H20V16H18V14Z" fill="#252626"/>
<path d="M10 14H12V16H10V14Z" fill="#252626"/>
<path d="M14 14H16V16H14V14Z" fill="#252626"/>
<path d="M14 18H16V20H14V18Z" fill="#252626"/>
<path d="M21 18H23V20H21V18Z" fill="#252626"/>
<path d="M10 18H12V20H10V18Z" fill="#252626"/>
<path d="M18 18H20V20H18V18Z" fill="#252626"/>
<path d="M10 21H12V23H10V21Z" fill="#252626"/>
<path d="M14 21H16V23H14V21Z" fill="#252626"/>
<path d="M18 21H20V23H18V21Z" fill="#252626"/>
<path d="M45 18H47V20H45V18Z" fill="#252626"/>
<path d="M41 18H43V20H41V18Z" fill="#252626"/>
<path d="M38 18H40V20H38V18Z" fill="#252626"/>
<path d="M45 21H47V23H45V21Z" fill="#252626"/>
<path d="M38 21H40V23H38V21Z" fill="#252626"/>
<path d="M41 21H43V23H41V21Z" fill="#252626"/>
<path d="M41 32H43V34H41V32Z" fill="#252626"/>
<path d="M41 29H43V31H41V29Z" fill="#252626"/>
<path d="M41 25H43V27H41V25Z" fill="#252626"/>
<path d="M45 29H47V31H45V29Z" fill="#252626"/>
<path d="M45 25H47V27H45V25Z" fill="#252626"/>
</svg>
