<svg width="20" height="20" viewBox="0 0 20 20" fill="none" xmlns="http://www.w3.org/2000/svg">
<g clip-path="url(#clip0)">
<path d="M10 20C15.5228 20 20 15.5228 20 10C20 4.47715 15.5228 0 10 0C4.47715 0 0 4.47715 0 10C0 15.5228 4.47715 20 10 20Z" fill="#32BA7C"/>
<path d="M7.44479 14.511L12.5867 19.653C16.8454 18.5173 20 14.6372 20 9.99996C20 9.90532 20 9.81069 20 9.71605L15.9621 5.99365L7.44479 14.511Z" fill="#0AA06E"/>
<path d="M10.2524 12.2397C10.694 12.6813 10.694 13.4384 10.2524 13.8801L9.33754 14.7949C8.8959 15.2365 8.1388 15.2365 7.69716 14.7949L3.69085 10.757C3.24921 10.3154 3.24921 9.5583 3.69085 9.11666L4.60568 8.20184C5.04732 7.7602 5.80441 7.7602 6.24606 8.20184L10.2524 12.2397Z" fill="white"/>
<path d="M13.7539 5.26812C14.1956 4.82648 14.9527 4.82648 15.3943 5.26812L16.3091 6.18295C16.7508 6.62459 16.7508 7.38168 16.3091 7.82332L9.36907 14.7318C8.92743 15.1735 8.17033 15.1735 7.72869 14.7318L6.81387 13.817C6.37223 13.3754 6.37223 12.6183 6.81387 12.1766L13.7539 5.26812Z" fill="white"/>
</g>
<defs>
<clipPath id="clip0">
<rect width="20" height="20" fill="white"/>
</clipPath>
</defs>
</svg>
