<svg width="32" height="32" viewBox="0 0 32 32" fill="none" xmlns="http://www.w3.org/2000/svg">
<path d="M16 14C17.6625 13.9939 19.006 12.6655 19 11C18.9939 9.3338 17.6632 8.00143 16 8C14.3229 7.99822 12.9871 9.31884 13 11C13.0124 12.6594 14.3321 14.0061 16 14Z" fill="#252626"/>
<path d="M16 0C7.16342 0 0 7.16374 0 16C0 24.8363 7.16342 32 16 32C24.8366 32 32 24.8363 32 16C32 7.16374 24.8366 0 16 0ZM16 5C19.1165 5.00851 22.016 7.8491 22 11C21.9843 14.0782 19.1113 16.0105 16 16C12.9205 15.9895 9.98167 13.0844 10 10C10.0174 6.88184 12.89 4.99149 16 5ZM22 18C21.3109 18.7074 20.9212 19.6428 20 20C19.1292 20.3375 17.9448 20.8867 17 21C17.1431 21.1552 16.911 20.911 17 21C18.282 22.2888 19.7223 23.7076 21 25C21.4354 25.4406 22.2396 25.4883 22 26C21.7384 26.5598 20.5758 27.0396 20 27C19.6353 26.9748 19.2524 27.2544 19 27C18.0323 26.0264 16.9474 24.9919 16 24C15.7234 23.7113 16.2439 23.7492 16 24C15.0267 25.0024 13.9949 26.0189 13 27C12.5531 27.4406 11.5185 27.2521 11 27C10.449 26.7335 9.97316 26.566 10 26C10.019 25.6183 10.7375 25.2612 11 25C12.2692 23.7334 13.7344 22.2695 15 21C15.0841 20.9159 14.8779 21.1309 15 21C13.2738 20.8196 11.3327 20.042 10 19C9.83435 18.8704 10.1506 19.1453 10 19C9.41631 18.4399 9.53874 17.6606 10 17C10.3951 16.4343 10.3109 15.6749 11 16C11.1336 16.0625 11.8782 15.9162 12 16C14.4834 17.7066 17.5068 18.6771 20 17C20.2468 16.8114 20.6939 16.0782 21 16C21.5945 15.8468 21.6811 16.4795 22 17C22.365 17.5948 22.4495 17.5381 22 18Z" fill="#252626"/>
</svg>
