<svg width="59" height="59" viewBox="0 0 59 59" fill="none" xmlns="http://www.w3.org/2000/svg">
<g clip-path="url(#clip0)">
<path d="M45 26C45.4727 26.0961 45.9033 25.4722 46 25C46.2157 23.946 46 23.0853 46 22C46 13.1776 38.8225 6 30 6C21.1775 6 14 13.1776 14 22C14 30.8224 21.1775 38 30 38C36.0134 38 41.239 34.3471 44 29C44.2211 28.5717 44.4283 28.2211 44 28C43.5718 27.7788 43.2211 28.5719 43 29C40.5398 33.7644 35.3576 36 30 36C22.14 36 16 29.86 16 22C16 14.14 22.14 8 30 8C37.86 8 44 14.14 44 22C44 22.9679 44.1922 24.061 44 25C43.9033 25.4723 44.5279 25.9034 45 26Z" fill="#252626"/>
<path d="M38.9999 18.9999C38.8997 18.6771 38.3209 19.0481 37.9999 18.9999L32.9999 17.9999L29.9999 11.9999C29.7181 11.3463 29.2816 11.3464 28.9999 11.9999L25.9999 17.9999L20.9999 18.9999C20.3181 19.0786 19.4936 19.5183 19.9999 19.9999L23.9999 23.9999L22.9999 29.9999C22.8607 30.7008 24.4037 31.3557 24.9999 30.9999L28.9999 27.9999L33.9999 30.9999C34.5952 31.3557 36.1395 30.7008 35.9999 29.9999L34.9999 23.9999L38.9999 19.9999C39.2327 19.7637 39.1001 19.3227 38.9999 18.9999ZM32.9999 22.9999C32.7982 23.2048 32.952 23.71 32.9999 23.9999L33.9999 27.9999L29.9999 25.9999C29.7514 25.8626 29.2484 25.8626 28.9999 25.9999L24.9999 27.9999L25.9999 23.9999C26.048 23.71 26.2016 23.2048 25.9999 22.9999L22.9999 19.9999L26.9999 18.9999C27.2781 18.9582 27.876 19.2641 27.9999 18.9999L28.9999 14.9999L30.9999 18.9999C31.1238 19.264 31.7217 18.9582 31.9999 18.9999L35.9999 19.9999L32.9999 22.9999Z" fill="#252626"/>
<path d="M54 52L45 37C48.7182 33.0829 51 27.8086 51 22C50.9999 9.9544 42.0707 0 30 0C26.2862 0 22.2278 1.2118 19 3C18.5805 3.23246 18.7671 3.5813 19 4C19.2329 4.41847 19.5806 4.23223 20 4C22.9704 2.35436 26.5805 2 30 2C41.1126 2 50 10.9106 50 22C50 33.0895 41.1126 42 30 42C18.8874 42 9.00004 33.0896 9.00004 22C9.00004 16.0508 12.4339 9.83457 17 6C17.3671 5.69171 17.309 5.36626 17 5C16.6911 4.63362 15.3671 4.69148 15 5C10.0407 9.16476 8.00004 15.5379 8.00004 22C8.00004 27.8185 10.2707 33.0808 14 37L11 41C10.4237 41.9623 12.4439 42.985 13 42L15 38C17.6155 40.3362 20.4881 42.1293 24 43L17 56L15 50C14.8642 49.573 14.4386 48.9042 14 49L8.00004 51L11 45C11.2399 44.5853 10.4155 44.2394 10 44C9.58442 43.7606 9.23994 44.5853 9.00004 45L5.00004 52C4.61314 52.6192 5.28903 53.1802 6.00004 53L13 51L16 58C16.1988 58.7026 16.6529 59.6461 17 59L26 43C27.1343 43.1817 27.8151 44 29 44C30.1947 44 31.8568 43.1846 33 43L38 53C38.1609 53.2782 38.6998 53 39 53C39.1474 53 38.8632 53.0788 39 53C39.4155 52.7605 40.2399 52.4147 40 52L35 43C38.5105 42.1249 41.3874 40.3394 44 38L51 51L45 49C44.5615 48.904 44.136 49.573 44 50L42 56V55C41.7601 54.5853 41.4155 54.7606 41 55C40.5845 55.2395 39.7601 55.5853 40 56L42 59C42.3473 59.6462 42.8013 58.7024 43 58L46 51L53 53C53.7117 53.1796 54.3867 52.6194 54 52Z" fill="#252626"/>
</g>
<defs>
<clipPath id="clip0">
<rect width="59" height="59" fill="white"/>
</clipPath>
</defs>
</svg>
