<svg width="206.7" height="193.3" xmlns="http://www.w3.org/2000/svg"><defs><linearGradient id="a" x1="41.3" x2="128.8" y1="194.1" y2="59.7" gradientUnits="userSpaceOnUse"><stop stop-color="#e74246" offset="0"/><stop stop-color="#fcc21d" offset="1"/></linearGradient></defs><path d="M105.7 59.4C85.5 67.8 69 73.4 57 86.9c4.4 1.9 10.4 3 18.3 4.2 7.8 32.8 31 64.6-24 64.5 2.7 17.5 2.8 32.1-16 35.9 27 6.6 66-4.7 88.5-28.4-2-4-8-5.9-17.6-7.4a53.7 53.7 0 0 1 35.4-64.6L141 84l-11.3-8c0 5.6-.2 10.6-1 15.1h-42A65.5 65.5 0 0 1 115.2 66z" fill="url(#a)" fill-rule="evenodd"/><path d="M18.4 91.1C11.8 114.7 5.9 134.6 0 155.5l183.6.4c12.6 0 20.7-6.1 22-20.4 1.4-15.5-14-19.3-24.3-12.6l-1.2 1a9.5 9.5 0 0 0-5.6-3.7 21 21 0 0 0-6.8-.5l3.1-11.3h7.7l1.5-5.6 1.7-6 1.6-5.7H18.4z" fill="#465d65" fill-rule="evenodd"/><g fill="#fff" fill-rule="evenodd"><path d="M15.7 121h7.5l2.7-9.9h.7c.7 0 1.2.2 1.7.6.3.3.6.9.8 1.9l2 7.4h8.4l-1.7-7c0-.4-.3-1-.6-1.6-.4-.6-.6-1-.9-1.2-.3-.3-.8-.6-1.7-1 1.2-.2 2.2-.5 3-.9 1.1-.6 2.1-1.4 3-2.4a9 9 0 0 0 1.8-3.4 6 6 0 0 0 0-4c-.5-1-1.2-1.7-2.4-2.1-1-.4-2.8-.6-5-.6H22.4zM43.7 108.9c-.8 2.8-.9 5.2-.3 7a6.9 6.9 0 0 0 3.2 4.2c1.5.8 3.7 1.3 6.4 1.3s5-.5 7.1-1.5c2.1-1 3.9-2.5 5.4-4.3 1.4-1.8 2.5-4.1 3.3-7 1.1-3.8.9-6.8-.7-9-1.5-2.2-4.3-3.3-8.4-3.3a16 16 0 0 0-16 12.6zM14 125.7l-6.8 24.2h13l3.4-.4c1.3-.1 2.3-.4 3-.7a9.7 9.7 0 0 0 3-2.4c1-1 1.6-2.2 2-3.4.3-1.5.3-2.8-.2-3.8-.6-1-1.7-1.8-3.3-2.2 1.3-.4 2.3-1 3-1.6 1.3-1 2-2.3 2.5-3.7.4-1.7.2-3.1-.7-4.3-1-1.1-2.6-1.7-4.9-1.7H14M176.2 141.9c-.4 2.4-.1 4.4 1 6 1.2 1.6 3.8 2.4 7.9 2.4 2.3 0 4.4-.4 6.1-1 1.7-.7 3.2-1.7 4.4-3 1.3-1.3 2.1-2.8 2.5-4.3.4-1.3.4-2.5 0-3.6-.3-1-1-2-2.3-2.7-1.2-.7-3.3-1.4-6.4-2.1-1.2-.3-2-.6-2.2-.9a1 1 0 0 1-.3-1c.2-.6.5-1 1-1.4.6-.4 1.3-.5 2.2-.5 1 0 1.8.2 2.2.7.5.5.7 1.3.6 2.4l7.1-.4c.4-2.5 0-4.4-1.3-5.5-1.3-1.2-3.5-1.7-6.6-1.7-2.5 0-4.6.3-6.2 1-1.7.5-3 1.4-4 2.5a8.6 8.6 0 0 0-2 3.5c-.6 2-.4 3.5.7 4.7 1 1.2 3.1 2.2 6.2 3 1.9.4 3 .9 3.4 1.3.4.5.6 1.1.4 1.7-.2.7-.7 1.3-1.4 1.8s-1.6.7-2.6.7c-1.5 0-2.4-.5-3-1.4-.2-.7-.3-1.5-.1-2.7zM153.4 96.8l-1.7 6h7.6l-5.1 18.2h7.5l5-18.3h7.7l1.7-6zM130.6 96.8l-6.8 24.2h20.4l1.6-5.5h-13l1.4-4.8h11.6l1.4-5h-11.6l1-3.8h12.6l1.5-5.1zM102.5 96.8L95.7 121h7.5l1.7-6 5-4 2.3 10h9.2l-5-15.1 11.4-9.1h-10l-10.4 9.1 2.6-9.1zM88.3 111c-.8 1.6-1.6 2.8-2.6 3.6-1 .8-2.1 1.2-3.6 1.2-1.4 0-2.4-.5-3-1.5-.5-1-.4-2.9.4-5.5.6-2.2 1.4-3.8 2.3-4.8a6 6 0 0 1 4.5-2c.7 0 1.4.1 1.9.4.5.3.9.8 1.2 1.3l.2 1.6 7-1.4c0-2.6-.9-4.5-2.3-5.7-1.4-1.2-3.6-1.8-6.6-1.8-4 0-7.2 1-10 3.2a17.2 17.2 0 0 0-5.7 9.2c-.9 3-1 5.5-.3 7.4.7 2 1.7 3.3 3.2 4 1.4.8 3.5 1.2 6.1 1.2a13.3 13.3 0 0 0 10-3.7c1.2-1.3 2.3-2.8 3.3-4.6zM151.8 141.9c-.4 2.4-.1 4.4 1 6 1.2 1.6 3.8 2.4 7.9 2.4 2.3 0 4.4-.4 6.1-1 1.7-.7 3.2-1.7 4.4-3 1.3-1.3 2.1-2.8 2.5-4.3.4-1.3.4-2.5 0-3.6-.3-1-1-2-2.3-2.7-1.2-.7-3.3-1.4-6.4-2.1-1.2-.3-2-.6-2.2-.9a1 1 0 0 1-.3-1c.2-.6.5-1 1-1.4.6-.4 1.3-.5 2.2-.5 1 0 1.8.2 2.2.7.5.5.7 1.3.6 2.4l7.1-.4c.4-2.5 0-4.4-1.3-5.5-1.3-1.2-3.5-1.7-6.6-1.7-2.5 0-4.6.3-6.2 1-1.7.5-3 1.4-4 2.5a8.6 8.6 0 0 0-2 3.5c-.6 2-.4 3.5.7 4.7 1 1.2 3.1 2.2 6.2 3 1.9.4 3 .9 3.4 1.3.4.5.6 1.1.4 1.7-.2.7-.7 1.3-1.4 1.8s-1.6.7-2.6.7c-1.5 0-2.4-.5-3-1.4-.2-.7-.3-1.5-.1-2.7zM133.3 125.7l-6.8 24.2h20.4l1.5-5.5h-13l1.4-4.8h11.7l1.4-5h-11.7l1.1-3.8h12.5l1.5-5.1zM105.2 125.7l-6.8 24.2h7l3.7-13.3 5.4 13.3h7l6.8-24.2h-7l-3.8 13.4-5.3-13.4zM92.3 125.7l-6.8 24.2H93l6.8-24.2zM61.7 141.9c-.5 2.4-.1 4.4 1 6 1.1 1.6 3.8 2.4 7.9 2.4 2.3 0 4.4-.4 6-1 1.8-.7 3.3-1.7 4.5-3 1.3-1.3 2-2.8 2.5-4.3.4-1.3.4-2.5 0-3.6a5 5 0 0 0-2.3-2.7c-1.2-.7-3.3-1.4-6.4-2.1-1.2-.3-2-.6-2.3-.9a1 1 0 0 1-.2-1c.1-.6.5-1 1-1.4.6-.4 1.3-.5 2.2-.5 1 0 1.8.2 2.2.7.5.5.7 1.3.5 2.4l7.2-.4c.4-2.5 0-4.4-1.4-5.5-1.3-1.2-3.4-1.7-6.5-1.7-2.6 0-4.6.3-6.3 1-1.6.5-3 1.4-4 2.5a8.6 8.6 0 0 0-2 3.5c-.5 2-.3 3.5.8 4.7 1 1.2 3.1 2.2 6.2 3 1.9.4 3 .9 3.4 1.3.4.5.5 1.1.4 1.7-.2.7-.7 1.3-1.4 1.8s-1.6.7-2.7.7c-1.4 0-2.4-.5-2.9-1.4-.3-.7-.3-1.5-.2-2.7zM55.1 125.7L51 140.4c-.4 1.4-1 2.4-2 3.2-.9.7-2 1-3.3 1-1.3 0-2.2-.3-2.7-1-.6-.8-.6-1.8-.3-3.2l4.2-14.7h-7.5l-4 14.4c-.4 1.2-.5 2.6-.5 4 0 1 .3 2 .8 2.9.6.9 1.2 1.6 2 2a8 8 0 0 0 3.2 1l3.8.3c2 0 3.9-.3 5.5-.8a13 13 0 0 0 6.6-5.3c.8-1.3 1.4-2.7 1.8-4.1l4-14.4z"/></g><path d="M142.8 76.7l-30.3-21.2 28.2-21-11.5-8 40-11.4-2.5 39.3-11-8.7z" fill="#fff" fill-rule="evenodd" stroke="#465d65" stroke-width="4.5"/><g fill="#465d65" fill-rule="evenodd"><path d="M27.2 106.6l1.4-5h3.3c1.3 0 2.2.3 2.6.7.4.4.4 1 .2 1.8a3 3 0 0 1-2.3 2.1l-2 .4zM51.2 108.9c.7-2.5 1.6-4.2 2.8-5.3a6 6 0 0 1 4.1-1.6c1.6 0 2.7.5 3.3 1.6.6 1 .6 2.7 0 5-.8 2.7-1.7 4.6-3 5.6a6 6 0 0 1-4 1.6c-1.6 0-2.7-.6-3.3-1.6-.6-1.1-.6-2.9 0-5.3zM16.2 144.7l1.4-5h3.8c1.3 0 2.2.3 2.6.7.4.5.5 1 .3 1.7-.3.8-.7 1.4-1.4 1.9a5 5 0 0 1-2.9.7zM18.9 135.2l1.3-4.6h3.3c1.1 0 1.8.2 2.2.6.3.4.4 1 .2 1.6a3 3 0 0 1-1.2 1.8c-.5.4-1.4.6-2.6.6z"/></g></svg>