<svg width="25" height="25" viewBox="0 0 25 25" fill="none" xmlns="http://www.w3.org/2000/svg">
<g clip-path="url(#clip0)">
<path d="M13 25C19.9036 25 25 19.9036 25 13C25 6.09644 19.9036 0 13 0C6.09644 0 0 6.09644 0 13C0 19.9036 6.09644 25 13 25Z" fill="#6F3FAA"/>
<path d="M18 6.99989C14.8835 6.26528 11.1959 5.90818 7.99995 6.99989C5.93068 7.75719 5.91373 9.14868 5.99995 10.9999C5.99995 11.5047 5.74133 12.4109 5.99995 12.9999C6.51725 14.6828 7.18935 16.1584 8.99995 16.9999C9.25862 17.1682 8.8275 17.7474 8.99995 17.9999C8.91373 17.9999 8.99995 17.9157 8.99995 17.9999C8.99995 18.4032 9.12314 19.6022 8.99995 19.9999L14 24.9999C19.656 24.1208 24.378 19.606 25 13.9999L18 6.99989Z" fill="#512D84"/>
<path d="M20 8.00008C19.6623 6.67906 17.3984 5.29498 16 5.00008C13.7383 4.58265 12.2613 4.58265 10 5.00008C8.60218 5.29498 6.33822 6.67915 6.00004 8.00008C5.58251 9.84487 5.58251 12.1553 6.00004 14.0001C6.32385 15.2647 7.65388 16.6282 9.00004 17.0001V18.0001C9.00004 18.5338 9.61776 19.3853 10 19.0001L12 17.0001C12.335 17.0182 12.665 17.0001 13 17.0001C14.1385 17.0001 14.8694 17.2087 16 17.0001C17.3984 16.7052 19.6623 15.321 20 14.0001C20.4176 12.1552 20.4175 9.84497 20 8.00008ZM18 14.0001C17.7745 14.8619 16.9186 15.8021 16 16.0001C14.7975 16.2214 14.211 16.0325 13 16.0001C12.9759 15.9994 12.0168 15.9834 12 16.0001C11.8282 16.1707 11 17.0001 11 17.0001L10 18.0001C9.91234 18.0886 10 18.1221 10 18.0001V16.0001C10 15.9597 10.041 16.0079 10 16.0001C9.99979 16 10.0003 16.0001 10 16.0001C9.08143 15.8021 8.22594 14.8619 8.00004 14.0001C7.62423 12.3326 7.62423 10.6676 8.00004 9.00008C8.22594 8.13824 9.08143 7.19805 10 7.00008C12.1003 6.61361 13.9002 6.61361 16 7.00008C16.9191 7.19805 17.7745 8.13824 18 9.00008C18.3762 10.6676 18.3763 12.3326 18 14.0001Z" fill="white"/>
<path d="M15.0001 15.0002C14.8566 14.957 14.1271 15.0523 14.0001 15.0002C12.684 14.4593 11.9594 14.0696 11.0001 13.0002C10.4545 12.392 10.361 11.7268 10.0001 11.0002C9.82888 10.6556 9.14711 9.35597 9.00006 9.00016C8.866 8.67575 8.79215 9.24466 9.00006 9.00016C9.19517 8.77072 9.72814 8.12961 10.0001 8.00016C10.2123 7.89918 10.845 7.822 11.0001 8.00016C11.3351 8.38539 11.7509 8.5536 12.0001 9.00016C12.1533 9.27482 11.2779 9.81326 11.0001 10.0002C10.9325 10.0456 11.0629 9.94888 11.0001 10.0002C10.9449 10.0451 11.0379 10.9393 11.0001 11.0002C10.931 11.1115 10.9556 10.8791 11.0001 11.0002C11.3426 11.9325 12.0526 12.6096 13.0001 13.0002C13.1517 13.0626 12.8254 13.0203 13.0001 13.0002C13.2926 12.9663 13.7951 13.1662 14.0001 13.0002C14.2004 12.8379 14.7843 12.8649 15.0001 13.0002C15.2159 13.1355 14.7921 12.8533 15.0001 13.0002C15.2043 13.1443 15.8118 12.8358 16.0001 13.0002C16.1812 13.1581 16.1021 13.7858 16.0001 14.0002C15.8134 14.3928 15.3918 14.7916 15.0001 15.0002C15.1248 14.9621 14.8894 15.0589 15.0001 15.0002C14.8566 14.957 15.1248 14.9621 15.0001 15.0002Z" fill="white"/>
<path d="M13 8.00013C14.792 8.04819 16.6846 9.30548 17 11.0001C17.0538 11.2889 16.9761 11.707 17 12.0001C17.0101 12.1234 17.139 11.9985 17 12.0001C16.8564 12.0018 17.0094 12.1233 17 12.0001C16.9816 11.7562 17.0352 11.2419 17 11.0001C16.8145 9.7232 15.3288 8.2268 14 8.00013C13.8 7.96601 13.2026 8.02046 13 8.00013C13.0284 8.15241 12.872 7.98729 13 8.00013C12.8729 8.00667 12.9762 7.87248 13 8.00013C12.9653 8.00003 13.0344 7.99818 13 8.00013C14.7921 8.04819 12.9653 8.00003 13 8.00013Z" fill="white"/>
<path d="M16 12.0001C15.9967 12.0237 16.0145 11.9478 16 12.0001C15.9475 12.1898 16.0693 12.1915 16 12.0001C16.0001 12.0612 15.9794 11.9433 16 12.0001C15.9993 11.5998 15.2114 11.3484 15 11.0001C14.7828 10.642 14.3892 10.1823 14 10.0001C13.7646 9.89 14.258 9.04079 14 9.00007C13.8873 8.98222 13.1133 9.01517 13 9.00007C12.8627 8.98184 12.9934 9.12932 13 9.00007C13.0061 8.87898 12.8618 8.99253 13 9.00007C13.454 9.02465 14.5963 8.7959 15 9.00007C15.8208 9.41541 15.8631 10.1247 16 11.0001C16.0062 11.0398 15.9968 10.9603 16 11.0001C16.0077 11.0982 15.9922 11.8704 16 12.0001C15.9967 12.0236 15.9922 11.8704 16 12.0001Z" fill="white"/>
<path d="M14.0001 10.0001C13.9 10.0019 14.0104 10.0888 14.0001 10.0001C13.9929 9.93827 14.0153 10.0604 14.0001 10.0001C13.97 9.88151 13.1032 9.0728 13.0001 9.00012C12.9514 8.96582 13.0578 9.01631 13.0001 9.00012C12.9267 8.97958 13.0732 9.01745 13.0001 9.00012C12.9206 8.98127 12.9876 9.07226 13.0001 9.00012C13.0114 8.93443 12.9259 8.99489 13.0001 9.00012C13.4638 9.0325 13.9528 9.472 14.0001 10.0001C14.0086 9.96441 14.0035 10.0374 14.0001 10.0001C14.0456 9.99715 13.9854 10.0611 14.0001 10.0001C13.9 10.0018 14.0456 9.99715 14.0001 10.0001Z" fill="white"/>
<path d="M20 9C19.806 8.24487 18.7208 7.59803 18 7L17 8C17.5795 8.44453 17.8589 8.46345 18 9C18.3856 10.7005 18.3856 13.2995 18 15C17.7689 15.8789 16.9413 16.7981 16 17C14.7677 17.2256 13.2409 17.0331 12 17C11.9753 16.9993 12.0172 16.9829 12 17C11.8239 17.174 11 18 11 18L10 19C9.91014 19.0902 10 19.1246 10 19V17C10 16.9588 10.042 17.008 10 17C9.99975 17 10.0003 17 10 17C9.46502 16.8853 8.47239 16.4873 8 16L7 17C7.60137 17.6298 8.24335 17.792 9 18V19C9 19.5443 9.60826 20.3928 10 20L12 18C12.3433 18.0185 12.6566 18 13 18C14.1667 18 14.8414 18.2128 16 18C17.433 17.6993 19.6539 16.3471 20 15C20.4279 13.1186 20.4278 10.8813 20 9Z" fill="#D1D1D1"/>
<path d="M14.0423 15.03C14.1637 14.9926 13.9027 14.9875 14.0423 15.03V15.03Z" fill="white"/>
<path d="M15.5235 13.7531C15.3402 13.5917 15.1423 13.4532 14.9437 13.3116C14.7413 13.1673 14.5376 13.0246 14.3275 12.8916C14.1175 12.7587 13.8684 12.7608 13.6733 12.9202C13.4738 13.0833 13.3817 13.3957 13.097 13.4289C12.927 13.4487 12.7788 13.3772 12.6313 13.3159C12.0639 13.0798 11.6334 12.7189 11.3081 12.2632L10.6167 12.876C10.6402 12.9032 10.6626 12.9311 10.6865 12.958C11.6202 14.0088 12.7989 14.6943 14.0796 15.2257C14.2032 15.277 14.3364 15.3055 14.476 15.3479C14.3364 15.3054 14.5975 15.3105 14.476 15.3479C14.5975 15.3105 14.726 15.2917 14.8338 15.234C15.2152 15.0291 15.4795 14.7082 15.6611 14.3225C15.7605 14.1119 15.6998 13.9083 15.5235 13.7531Z" fill="#D1D1D1"/>
<path d="M12.5038 8.07764C12.5052 8.07764 12.5066 8.07778 12.508 8.07778C12.601 8.0811 14.1131 8.12275 12.5038 8.07764Z" fill="white"/>
<path d="M14.9066 9.07422L14.6118 9.3355C15.075 9.78618 15.3945 10.3835 15.4858 11.0408C15.5186 11.2772 15.5307 11.5167 15.5479 11.755C15.5566 11.8755 15.617 11.9878 15.7514 11.9863C15.8814 11.9847 15.9496 11.8703 15.9402 11.7498C15.9178 11.4633 15.9 11.1748 15.8497 10.8926C15.7207 10.1676 15.3844 9.54692 14.9066 9.07422Z" fill="#D1D1D1"/>
<path d="M15.0157 10.9836C14.9313 10.4183 14.6968 9.95693 14.3073 9.60547L14.0133 9.86597C14.1653 10.0009 14.2968 10.1593 14.3981 10.3341C14.577 10.6428 14.6541 10.9973 14.6547 11.3521C14.6548 11.4063 14.6574 11.4636 14.6748 11.5141C14.7336 11.6838 14.9885 11.6628 15.033 11.4945C15.0453 11.4481 15.0467 11.399 15.0495 11.3781C15.0467 11.3991 15.0427 11.2632 15.0495 11.3781C15.0427 11.2632 15.0386 11.176 15.0321 11.0889C15.0295 11.0535 15.021 11.0188 15.0157 10.9836Z" fill="#D1D1D1"/>
<path d="M15.0493 11.3778C15.0427 11.2629 15.0465 11.3987 15.0493 11.3778V11.3778Z" fill="white"/>
<path d="M14.0073 11.337C14.0095 11.3368 14.0116 11.3357 14.0137 11.3354C14.0078 11.3354 13.9987 11.3356 13.9894 11.3359C13.9954 11.3361 14.001 11.337 14.0073 11.337Z" fill="white"/>
<path d="M14.0073 11.3375C14.001 11.3375 13.9955 11.3366 13.9894 11.3364C13.9591 11.3373 13.9278 11.3389 14.0073 11.3375Z" fill="white"/>
<path d="M14.0137 11.3354C14.0115 11.3357 14.0094 11.3368 14.0073 11.337C14.0237 11.3358 14.0223 11.3354 14.0137 11.3354Z" fill="white"/>
<path d="M13.7116 10.1328L13.4124 10.398C13.4289 10.4081 13.445 10.4185 13.4607 10.4299C13.6051 10.5351 13.6964 10.6942 13.7385 10.8659C13.7599 10.9531 13.7678 11.0438 13.7779 11.1335C13.7917 11.2562 13.8614 11.3316 13.9896 11.336C13.9989 11.3358 14.0081 11.3356 14.0139 11.3355C14.0756 11.3287 14.1375 11.2854 14.1573 11.2001C14.1692 11.1485 14.1638 11.0914 14.159 11.0375C14.1218 10.61 13.9602 10.3167 13.7116 10.1328Z" fill="#D1D1D1"/>
</g>
<defs>
<clipPath id="clip0">
<rect width="25" height="25" fill="white"/>
</clipPath>
</defs>
</svg>
