<svg width="60" height="59" viewBox="0 0 60 59" fill="none" xmlns="http://www.w3.org/2000/svg">
<path d="M16 51H14V53H16V51Z" fill="#252626"/>
<path d="M35.0001 40.9999H19.0001V26.9999C19.0001 26.7581 19.1728 26.1709 19.0001 25.9999C18.8274 25.829 19.2444 25.9999 19.0001 25.9999H2.00011C1.75583 25.9999 1.17284 25.829 1.00011 25.9999C0.827378 26.1709 1.00011 26.7581 1.00011 26.9999V55.9999C1.00011 56.2418 0.827378 56.829 1.00011 56.9999C1.17284 57.1709 1.75583 56.9999 2.00011 56.9999H35.0001C35.2444 56.9999 35.8274 57.1709 36.0001 56.9999C36.1728 56.829 36.0001 56.2418 36.0001 55.9999V41.9999C36.0001 41.7581 36.1728 41.1709 36.0001 40.9999C35.8274 40.829 35.2444 40.9999 35.0001 40.9999ZM25.0001 41.9999H29.0001V45.9999H25.0001V41.9999ZM8.00011 27.9999H12.0001V30.9999H8.00011V27.9999ZM3.00011 27.9999H7.00011V31.9999C7.00011 32.2418 6.82738 32.829 7.00011 32.9999C7.17284 33.1709 6.75583 32.9999 7.00011 32.9999H13.0001C13.2444 32.9999 13.8274 33.1709 14.0001 32.9999C14.1728 32.829 14.0001 32.2418 14.0001 31.9999V27.9999H18.0001V40.9999H3.00011V27.9999ZM8.00011 41.9999H12.0001V45.9999H8.00011V41.9999ZM3.00011 41.9999H7.00011V46.9999C7.00011 47.2418 6.82738 47.829 7.00011 47.9999C7.17284 48.1709 6.75583 47.9999 7.00011 47.9999H13.0001C13.2444 47.9999 13.8274 48.1709 14.0001 47.9999C14.1728 47.829 14.0001 47.2418 14.0001 46.9999V41.9999H18.0001V54.9999H3.00011V41.9999ZM34.0001 54.9999H19.0001V41.9999H23.0001V46.9999C23.0001 47.2418 22.8274 47.829 23.0001 47.9999C23.1728 48.1709 23.7558 47.9999 24.0001 47.9999H30.0001C30.2444 47.9999 29.8274 48.1709 30.0001 47.9999C30.1728 47.829 30.0001 47.2418 30.0001 46.9999V41.9999H34.0001V54.9999Z" fill="#252626"/>
<path d="M33 51H31V53H33V51Z" fill="#252626"/>
<path d="M16 37H14V39H16V37Z" fill="#252626"/>
<path d="M56.0002 13C56.0719 13.0171 55.9264 13 56.0002 13C56.1638 12.9999 56.8584 13.0802 57.0002 13C57.142 12.9198 56.9179 12.139 57.0002 12C57.085 11.8532 57.0029 12.1688 57.0002 12V7.99998C57.0002 7.79398 57.1298 8.16183 57.0002 7.99998C56.8706 7.83813 56.2038 7.04831 56.0002 6.99998L29.0002 0.999978C28.8563 0.965665 29.1441 0.965665 29.0002 0.999978L2.00021 6.99998C1.79662 7.04831 1.12978 7.83813 1.00021 7.99998C0.870641 8.16183 1.00023 7.79398 1.00021 7.99998V12C0.997019 12.1922 0.892589 12.8395 1.00021 13C1.107 13.1545 1.82306 12.9326 2.00021 13C2.17736 13.0673 1.81555 13.0437 2.00021 13H4.00021V24H6.00021V12L29.0002 6.99998L52.0002 12V55H47.0002V19C47.0002 18.7565 46.1752 19.1721 46.0002 19C45.8252 18.8278 46.2477 18 46.0002 18H12.0002C11.7527 18 12.1752 18.8278 12.0002 19C11.8252 19.1721 11.0002 18.7565 11.0002 19V23C11.0002 23.2435 11.8252 23.8278 12.0002 24C12.1752 24.1721 11.7527 24 12.0002 24H45.0002V26H22.0002V28H45.0002V29H22.0002V31H45.0002V33H22.0002V35H45.0002V55H38.0002V57H57.0002V55H54.0002V13H56.0002ZM13.0002 22V20H45.0002V22H13.0002ZM29.0002 4.99998C28.9264 4.99994 29.0719 4.98287 29.0002 4.99998L3.00021 11V8.99998L29.0002 2.99998L55.0002 8.99998V11L29.0002 4.99998C29.074 4.99994 28.9285 4.98287 29.0002 4.99998Z" fill="#252626"/>
<path d="M30 16C30.7161 16 31.4937 15.5626 32 15C32.5063 14.4374 33 13.7956 33 13C33 12.2044 32.5063 11.5626 32 11C31.4937 10.4374 30.7161 10 30 10H27C26.2839 10 25.5063 10.4374 25 11C24.4937 11.5626 24 12.2044 24 13C24 13.7956 24.4937 14.4374 25 15C25.5063 15.5626 26.2839 16 27 16H30ZM26 13C26.0003 12.7349 25.8313 12.1875 26 12C26.1687 11.8125 26.7614 12.0003 27 12H30C30.2387 12 30.8312 11.8125 31 12C31.1688 12.1875 31 12.7348 31 13C31 13.2652 31.1688 13.8125 31 14C30.8312 14.1875 30.2387 14 30 14H27C26.7614 13.9997 26.1687 14.1875 26 14C25.8313 13.8125 26.0003 13.2651 26 13Z" fill="#252626"/>
</svg>
