<svg width="32" height="32" viewBox="0 0 32 32" fill="none" xmlns="http://www.w3.org/2000/svg">
<path d="M19.4668 16.5C19.4668 18.1385 18.1385 19.4668 16.5 19.4668C14.8615 19.4668 13.5332 18.1385 13.5332 16.5C13.5332 14.8615 14.8615 13.5332 16.5 13.5332C18.1385 13.5332 19.4668 14.8615 19.4668 16.5Z" fill="white"/>
<path d="M23.4383 11.2511C23.2956 10.8646 23.0681 10.5148 22.7725 10.2277C22.4854 9.93207 22.1358 9.70454 21.7491 9.56193C21.4355 9.44012 20.9644 9.29514 20.0966 9.25565C19.1579 9.21284 18.8764 9.20361 16.5 9.20361C14.1233 9.20361 13.8418 9.2126 12.9033 9.25541C12.0356 9.29514 11.5642 9.44012 11.2508 9.56193C10.8641 9.70454 10.5143 9.93207 10.2275 10.2277C9.93182 10.5148 9.70429 10.8644 9.56144 11.2511C9.43964 11.5647 9.29465 12.0361 9.25516 12.9038C9.21235 13.8423 9.20312 14.1238 9.20312 16.5005C9.20312 18.8769 9.21235 19.1584 9.25516 20.0971C9.29465 20.9648 9.43964 21.436 9.56144 21.7496C9.70429 22.1363 9.93158 22.4859 10.2272 22.773C10.5143 23.0686 10.8639 23.2961 11.2506 23.4388C11.5642 23.5608 12.0356 23.7058 12.9033 23.7453C13.8418 23.7881 14.123 23.7971 16.4997 23.7971C18.8767 23.7971 19.1581 23.7881 20.0964 23.7453C20.9641 23.7058 21.4355 23.5608 21.7491 23.4388C22.5253 23.1393 23.1388 22.5258 23.4383 21.7496C23.5601 21.436 23.705 20.9648 23.7448 20.0971C23.7876 19.1584 23.7966 18.8769 23.7966 16.5005C23.7966 14.1238 23.7876 13.8423 23.7448 12.9038C23.7053 12.0361 23.5603 11.5647 23.4383 11.2511ZM16.5 21.0706C13.9757 21.0706 11.9294 19.0245 11.9294 16.5002C11.9294 13.9759 13.9757 11.9299 16.5 11.9299C19.024 11.9299 21.0703 13.9759 21.0703 16.5002C21.0703 19.0245 19.024 21.0706 16.5 21.0706ZM21.251 12.8173C20.6611 12.8173 20.1829 12.339 20.1829 11.7492C20.1829 11.1593 20.6611 10.6811 21.251 10.6811C21.8409 10.6811 22.3191 11.1593 22.3191 11.7492C22.3189 12.339 21.8409 12.8173 21.251 12.8173Z" fill="white"/>
<path d="M16.5 1C7.9409 1 1 7.9409 1 16.5C1 25.0591 7.9409 32 16.5 32C25.0591 32 32 25.0591 32 16.5C32 7.9409 25.0591 1 16.5 1ZM25.3467 20.1695C25.3037 21.1169 25.153 21.7638 24.933 22.33C24.4707 23.5256 23.5256 24.4707 22.33 24.933C21.764 25.153 21.1169 25.3034 20.1697 25.3467C19.2206 25.39 18.9174 25.4004 16.5002 25.4004C14.0829 25.4004 13.7799 25.39 12.8305 25.3467C11.8833 25.3034 11.2362 25.153 10.6702 24.933C10.0761 24.7095 9.53829 24.3593 9.09365 23.9063C8.64097 23.4619 8.2907 22.9239 8.06719 22.33C7.84724 21.764 7.69658 21.1169 7.65353 20.1697C7.60978 19.2204 7.59961 18.9171 7.59961 16.5C7.59961 14.0829 7.60978 13.7796 7.6533 12.8305C7.69634 11.8831 7.84676 11.2362 8.06672 10.67C8.29022 10.0761 8.64073 9.53806 9.09365 9.09365C9.53806 8.64073 10.0761 8.29046 10.67 8.06696C11.2362 7.847 11.8831 7.69658 12.8305 7.6533C13.7796 7.61002 14.0829 7.59961 16.5 7.59961C18.9171 7.59961 19.2204 7.61002 20.1695 7.65353C21.1169 7.69658 21.7638 7.847 22.33 8.06672C22.9239 8.29022 23.4619 8.64073 23.9066 9.09365C24.3593 9.53829 24.7098 10.0761 24.933 10.67C25.1532 11.2362 25.3037 11.8831 25.3469 12.8305C25.3902 13.7796 25.4004 14.0829 25.4004 16.5C25.4004 18.9171 25.3902 19.2204 25.3467 20.1695Z" fill="white"/>
</svg>
