<svg width="61" height="61" viewBox="0 0 61 61" fill="none" xmlns="http://www.w3.org/2000/svg">
<path d="M45.4418 13.6437H15.5583C14.5009 13.6437 13.6437 14.5009 13.6437 15.5583V45.4418C13.6437 46.4992 14.5009 47.3563 15.5583 47.3563H45.4418C46.4992 47.3563 47.3563 46.4992 47.3563 45.4418V15.5583C47.3563 14.5009 46.4992 13.6437 45.4418 13.6437Z" fill="#B6D2DD"/>
<path d="M45.4417 47.9664H15.5582C14.8894 47.9658 14.248 47.7 13.7747 47.2275C13.3013 46.7549 13.0346 46.1139 13.0328 45.4451V15.5583C13.0346 14.8894 13.3013 14.2485 13.7747 13.7759C14.248 13.3033 14.8894 13.0376 15.5582 13.037H45.4417C46.1099 13.0387 46.7502 13.3049 47.2227 13.7774C47.6951 14.2498 47.9613 14.8901 47.963 15.5583V45.4418C47.9622 46.1105 47.6964 46.7517 47.2238 47.2249C46.7513 47.698 46.1105 47.9647 45.4417 47.9664ZM15.5582 14.2537C15.2129 14.2542 14.8817 14.3913 14.6371 14.6351C14.3925 14.879 14.2543 15.2097 14.2528 15.5551V45.4418C14.2543 45.7872 14.3925 46.1179 14.6371 46.3618C14.8817 46.6056 15.2129 46.7427 15.5582 46.7431H45.4417C45.7864 46.7416 46.1165 46.6041 46.3602 46.3603C46.604 46.1166 46.7416 45.7865 46.743 45.4418V15.5583C46.7416 15.2136 46.604 14.8835 46.3602 14.6398C46.1165 14.3961 45.7864 14.2585 45.4417 14.257L15.5582 14.2537Z" fill="#556065"/>
<path d="M17.6689 43.3312V17.6689H43.3312V43.3312H17.6689Z" fill="#EDEDED"/>
<path d="M43.3327 17.6713V43.3319H40.7545V20.217H17.6721V17.6713H43.3327Z" fill="#DBD8DD"/>
<path d="M17.6697 14.2537C17.5079 14.2537 17.3527 14.1894 17.2383 14.075C17.1239 13.9606 17.0597 13.8054 17.0597 13.6437V10.98C17.0597 10.8182 17.1239 10.6631 17.2383 10.5487C17.3527 10.4343 17.5079 10.37 17.6697 10.37C17.8314 10.37 17.9866 10.4343 18.101 10.5487C18.2154 10.6631 18.2797 10.8182 18.2797 10.98V13.6437C18.2797 13.8054 18.2154 13.9606 18.101 14.075C17.9866 14.1894 17.8314 14.2537 17.6697 14.2537Z" fill="#556065"/>
<path d="M21.9454 14.2537C21.7836 14.2537 21.6284 14.1895 21.514 14.0751C21.3996 13.9607 21.3354 13.8055 21.3354 13.6437V11.756C21.3354 11.5942 21.3996 11.4391 21.514 11.3247C21.6284 11.2103 21.7836 11.146 21.9454 11.146C22.1071 11.146 22.2623 11.2103 22.3767 11.3247C22.4911 11.4391 22.5554 11.5942 22.5554 11.756V13.6437C22.5554 13.8055 22.4911 13.9607 22.3767 14.0751C22.2623 14.1895 22.1071 14.2537 21.9454 14.2537Z" fill="#556065"/>
<path d="M26.2227 14.2537C26.0609 14.2537 25.9057 14.1894 25.7913 14.075C25.6769 13.9606 25.6127 13.8054 25.6127 13.6437V10.98C25.6127 10.8182 25.6769 10.6631 25.7913 10.5487C25.9057 10.4343 26.0609 10.37 26.2227 10.37C26.3845 10.37 26.5396 10.4343 26.654 10.5487C26.7684 10.6631 26.8327 10.8182 26.8327 10.98V13.6437C26.8327 13.8054 26.7684 13.9606 26.654 14.075C26.5396 14.1894 26.3845 14.2537 26.2227 14.2537Z" fill="#556065"/>
<path d="M30.5 14.2537C30.3382 14.2537 30.183 14.1895 30.0686 14.0751C29.9543 13.9607 29.89 13.8055 29.89 13.6437V11.756C29.89 11.5942 29.9543 11.4391 30.0686 11.3247C30.183 11.2103 30.3382 11.146 30.5 11.146C30.6618 11.146 30.8169 11.2103 30.9313 11.3247C31.0457 11.4391 31.11 11.5942 31.11 11.756V13.6437C31.11 13.8055 31.0457 13.9607 30.9313 14.0751C30.8169 14.1895 30.6618 14.2537 30.5 14.2537Z" fill="#556065"/>
<path d="M39.0546 14.2537C38.8929 14.2537 38.7377 14.1895 38.6233 14.0751C38.5089 13.9607 38.4446 13.8055 38.4446 13.6437V11.756C38.4446 11.5942 38.5089 11.4391 38.6233 11.3247C38.7377 11.2103 38.8929 11.146 39.0546 11.146C39.2164 11.146 39.3716 11.2103 39.486 11.3247C39.6004 11.4391 39.6646 11.5942 39.6646 11.756V13.6437C39.6646 13.8055 39.6004 13.9607 39.486 14.0751C39.3716 14.1895 39.2164 14.2537 39.0546 14.2537Z" fill="#556065"/>
<path d="M34.7773 14.2537C34.6155 14.2537 34.4604 14.1894 34.346 14.075C34.2316 13.9606 34.1673 13.8054 34.1673 13.6437V10.98C34.1673 10.8182 34.2316 10.6631 34.346 10.5487C34.4604 10.4343 34.6155 10.37 34.7773 10.37C34.9391 10.37 35.0943 10.4343 35.2087 10.5487C35.3231 10.6631 35.3873 10.8182 35.3873 10.98V13.6437C35.3873 13.8054 35.3231 13.9606 35.2087 14.075C35.0943 14.1894 34.9391 14.2537 34.7773 14.2537Z" fill="#556065"/>
<path d="M43.3303 14.2537C43.1686 14.2537 43.0134 14.1894 42.899 14.075C42.7846 13.9606 42.7203 13.8054 42.7203 13.6437V10.98C42.7203 10.8182 42.7846 10.6631 42.899 10.5487C43.0134 10.4343 43.1686 10.37 43.3303 10.37C43.4921 10.37 43.6473 10.4343 43.7617 10.5487C43.8761 10.6631 43.9403 10.8182 43.9403 10.98V13.6437C43.9403 13.8054 43.8761 13.9606 43.7617 14.075C43.6473 14.1894 43.4921 14.2537 43.3303 14.2537Z" fill="#556065"/>
<path d="M43.3303 50.63C43.1686 50.63 43.0134 50.5657 42.899 50.4513C42.7846 50.3369 42.7203 50.1818 42.7203 50.02V47.3563C42.7203 47.1946 42.7846 47.0394 42.899 46.925C43.0134 46.8106 43.1686 46.7463 43.3303 46.7463C43.4921 46.7463 43.6473 46.8106 43.7617 46.925C43.8761 47.0394 43.9403 47.1946 43.9403 47.3563V50.02C43.9403 50.1818 43.8761 50.3369 43.7617 50.4513C43.6473 50.5657 43.4921 50.63 43.3303 50.63Z" fill="#556065"/>
<path d="M39.0546 49.8573C38.8929 49.8573 38.7377 49.7931 38.6233 49.6787C38.5089 49.5643 38.4446 49.4091 38.4446 49.2473V47.3563C38.4446 47.1946 38.5089 47.0394 38.6233 46.925C38.7377 46.8106 38.8929 46.7463 39.0546 46.7463C39.2164 46.7463 39.3716 46.8106 39.486 46.925C39.6004 47.0394 39.6646 47.1946 39.6646 47.3563V49.2441C39.6651 49.3245 39.6496 49.4041 39.6191 49.4785C39.5887 49.5529 39.5438 49.6205 39.4871 49.6775C39.4304 49.7345 39.363 49.7797 39.2888 49.8106C39.2146 49.8415 39.135 49.8573 39.0546 49.8573Z" fill="#556065"/>
<path d="M34.7773 50.63C34.6155 50.63 34.4604 50.5657 34.346 50.4513C34.2316 50.3369 34.1673 50.1818 34.1673 50.02V47.3563C34.1673 47.1946 34.2316 47.0394 34.346 46.925C34.4604 46.8106 34.6155 46.7463 34.7773 46.7463C34.9391 46.7463 35.0943 46.8106 35.2087 46.925C35.3231 47.0394 35.3873 47.1946 35.3873 47.3563V50.02C35.3873 50.1818 35.3231 50.3369 35.2087 50.4513C35.0943 50.5657 34.9391 50.63 34.7773 50.63Z" fill="#556065"/>
<path d="M30.5 49.8573C30.3382 49.8573 30.183 49.7931 30.0686 49.6787C29.9543 49.5643 29.89 49.4091 29.89 49.2473V47.3563C29.89 47.1946 29.9543 47.0394 30.0686 46.925C30.183 46.8106 30.3382 46.7463 30.5 46.7463C30.6618 46.7463 30.8169 46.8106 30.9313 46.925C31.0457 47.0394 31.11 47.1946 31.11 47.3563V49.2441C31.1104 49.3245 31.0949 49.4041 31.0645 49.4785C31.034 49.5529 30.9891 49.6205 30.9325 49.6775C30.8758 49.7345 30.8084 49.7797 30.7342 49.8106C30.6599 49.8415 30.5804 49.8573 30.5 49.8573Z" fill="#556065"/>
<path d="M21.9454 49.8573C21.7836 49.8573 21.6284 49.7931 21.514 49.6787C21.3996 49.5643 21.3354 49.4091 21.3354 49.2473V47.3563C21.3354 47.1946 21.3996 47.0394 21.514 46.925C21.6284 46.8106 21.7836 46.7463 21.9454 46.7463C22.1071 46.7463 22.2623 46.8106 22.3767 46.925C22.4911 47.0394 22.5554 47.1946 22.5554 47.3563V49.2441C22.5558 49.3245 22.5403 49.4041 22.5099 49.4785C22.4794 49.5529 22.4345 49.6205 22.3778 49.6775C22.3212 49.7345 22.2538 49.7797 22.1795 49.8106C22.1053 49.8415 22.0257 49.8573 21.9454 49.8573Z" fill="#556065"/>
<path d="M26.2227 50.63C26.0609 50.63 25.9057 50.5657 25.7913 50.4513C25.6769 50.3369 25.6127 50.1818 25.6127 50.02V47.3563C25.6127 47.1946 25.6769 47.0394 25.7913 46.925C25.9057 46.8106 26.0609 46.7463 26.2227 46.7463C26.3845 46.7463 26.5396 46.8106 26.654 46.925C26.7684 47.0394 26.8327 47.1946 26.8327 47.3563V50.02C26.8327 50.1818 26.7684 50.3369 26.654 50.4513C26.5396 50.5657 26.3845 50.63 26.2227 50.63Z" fill="#556065"/>
<path d="M17.6697 50.63C17.5079 50.63 17.3527 50.5657 17.2383 50.4513C17.1239 50.3369 17.0597 50.1818 17.0597 50.02V47.3563C17.0597 47.1946 17.1239 47.0394 17.2383 46.925C17.3527 46.8106 17.5079 46.7463 17.6697 46.7463C17.8314 46.7463 17.9866 46.8106 18.101 46.925C18.2154 47.0394 18.2797 47.1946 18.2797 47.3563V50.02C18.2797 50.1818 18.2154 50.3369 18.101 50.4513C17.9866 50.5657 17.8314 50.63 17.6697 50.63Z" fill="#556065"/>
<path d="M50.02 18.2788H47.3571C47.1953 18.2788 47.0402 18.2146 46.9258 18.1002C46.8114 17.9858 46.7471 17.8306 46.7471 17.6688C46.7471 17.5071 46.8114 17.3519 46.9258 17.2375C47.0402 17.1231 47.1953 17.0588 47.3571 17.0588H50.02C50.1818 17.0588 50.3369 17.1231 50.4513 17.2375C50.5657 17.3519 50.63 17.5071 50.63 17.6688C50.63 17.8306 50.5657 17.9858 50.4513 18.1002C50.3369 18.2146 50.1818 18.2788 50.02 18.2788Z" fill="#556065"/>
<path d="M49.2441 22.5562H47.3571C47.1953 22.5562 47.0402 22.4919 46.9258 22.3775C46.8114 22.2631 46.7471 22.108 46.7471 21.9462C46.7471 21.7844 46.8114 21.6292 46.9258 21.5148C47.0402 21.4004 47.1953 21.3362 47.3571 21.3362H49.2441C49.4058 21.3362 49.561 21.4004 49.6754 21.5148C49.7898 21.6292 49.8541 21.7844 49.8541 21.9462C49.8541 22.108 49.7898 22.2631 49.6754 22.3775C49.561 22.4919 49.4058 22.5562 49.2441 22.5562Z" fill="#556065"/>
<path d="M50.02 26.8327H47.3571C47.1953 26.8327 47.0402 26.7684 46.9258 26.654C46.8114 26.5396 46.7471 26.3845 46.7471 26.2227C46.7471 26.0609 46.8114 25.9057 46.9258 25.7913C47.0402 25.6769 47.1953 25.6127 47.3571 25.6127H50.02C50.1818 25.6127 50.3369 25.6769 50.4513 25.7913C50.5657 25.9057 50.63 26.0609 50.63 26.2227C50.63 26.3845 50.5657 26.5396 50.4513 26.654C50.3369 26.7684 50.1818 26.8327 50.02 26.8327Z" fill="#556065"/>
<path d="M49.2441 31.11H47.3571C47.1953 31.11 47.0402 31.0457 46.9258 30.9314C46.8114 30.817 46.7471 30.6618 46.7471 30.5C46.7471 30.3382 46.8114 30.1831 46.9258 30.0687C47.0402 29.9543 47.1953 29.89 47.3571 29.89H49.2441C49.4058 29.89 49.561 29.9543 49.6754 30.0687C49.7898 30.1831 49.8541 30.3382 49.8541 30.5C49.8541 30.6618 49.7898 30.817 49.6754 30.9314C49.561 31.0457 49.4058 31.11 49.2441 31.11Z" fill="#556065"/>
<path d="M49.2441 39.6638H47.3571C47.1953 39.6638 47.0402 39.5996 46.9258 39.4852C46.8114 39.3708 46.7471 39.2156 46.7471 39.0538C46.7471 38.8921 46.8114 38.7369 46.9258 38.6225C47.0402 38.5081 47.1953 38.4438 47.3571 38.4438H49.2441C49.4058 38.4438 49.561 38.5081 49.6754 38.6225C49.7898 38.7369 49.8541 38.8921 49.8541 39.0538C49.8541 39.2156 49.7898 39.3708 49.6754 39.4852C49.561 39.5996 49.4058 39.6638 49.2441 39.6638Z" fill="#556065"/>
<path d="M50.02 35.3874H47.3571C47.1953 35.3874 47.0402 35.3231 46.9258 35.2087C46.8114 35.0943 46.7471 34.9391 46.7471 34.7774C46.7471 34.6156 46.8114 34.4604 46.9258 34.346C47.0402 34.2316 47.1953 34.1674 47.3571 34.1674H50.02C50.1818 34.1674 50.3369 34.2316 50.4513 34.346C50.5657 34.4604 50.63 34.6156 50.63 34.7774C50.63 34.9391 50.5657 35.0943 50.4513 35.2087C50.3369 35.3231 50.1818 35.3874 50.02 35.3874Z" fill="#556065"/>
<path d="M50.02 43.9412H47.3571C47.1953 43.9412 47.0402 43.8769 46.9258 43.7625C46.8114 43.6481 46.7471 43.493 46.7471 43.3312C46.7471 43.1694 46.8114 43.0143 46.9258 42.8999C47.0402 42.7855 47.1953 42.7212 47.3571 42.7212H50.02C50.1818 42.7212 50.3369 42.7855 50.4513 42.8999C50.5657 43.0143 50.63 43.1694 50.63 43.3312C50.63 43.493 50.5657 43.6481 50.4513 43.7625C50.3369 43.8769 50.1818 43.9412 50.02 43.9412Z" fill="#556065"/>
<path d="M13.6429 43.9412H10.98C10.8182 43.9412 10.6631 43.8769 10.5487 43.7625C10.4343 43.6481 10.37 43.493 10.37 43.3312C10.37 43.1694 10.4343 43.0143 10.5487 42.8999C10.6631 42.7855 10.8182 42.7212 10.98 42.7212H13.6429C13.8046 42.7212 13.9598 42.7855 14.0742 42.8999C14.1886 43.0143 14.2529 43.1694 14.2529 43.3312C14.2529 43.493 14.1886 43.6481 14.0742 43.7625C13.9598 43.8769 13.8046 43.9412 13.6429 43.9412Z" fill="#556065"/>
<path d="M13.6429 39.6638H11.7559C11.5942 39.6638 11.439 39.5996 11.3246 39.4852C11.2102 39.3708 11.1459 39.2156 11.1459 39.0538C11.1459 38.8921 11.2102 38.7369 11.3246 38.6225C11.439 38.5081 11.5942 38.4438 11.7559 38.4438H13.6429C13.8047 38.4438 13.9598 38.5081 14.0742 38.6225C14.1886 38.7369 14.2529 38.8921 14.2529 39.0538C14.2529 39.2156 14.1886 39.3708 14.0742 39.4852C13.9598 39.5996 13.8047 39.6638 13.6429 39.6638Z" fill="#556065"/>
<path d="M13.6429 35.3874H10.98C10.8182 35.3874 10.6631 35.3231 10.5487 35.2087C10.4343 35.0943 10.37 34.9391 10.37 34.7774C10.37 34.6156 10.4343 34.4604 10.5487 34.346C10.6631 34.2316 10.8182 34.1674 10.98 34.1674H13.6429C13.8046 34.1674 13.9598 34.2316 14.0742 34.346C14.1886 34.4604 14.2529 34.6156 14.2529 34.7774C14.2529 34.9391 14.1886 35.0943 14.0742 35.2087C13.9598 35.3231 13.8046 35.3874 13.6429 35.3874Z" fill="#556065"/>
<path d="M13.6429 31.11H11.7559C11.5942 31.11 11.439 31.0457 11.3246 30.9314C11.2102 30.817 11.1459 30.6618 11.1459 30.5C11.1459 30.3382 11.2102 30.1831 11.3246 30.0687C11.439 29.9543 11.5942 29.89 11.7559 29.89H13.6429C13.8047 29.89 13.9598 29.9543 14.0742 30.0687C14.1886 30.1831 14.2529 30.3382 14.2529 30.5C14.2529 30.6618 14.1886 30.817 14.0742 30.9314C13.9598 31.0457 13.8047 31.11 13.6429 31.11Z" fill="#556065"/>
<path d="M13.6429 22.5562H11.7559C11.5942 22.5562 11.439 22.4919 11.3246 22.3775C11.2102 22.2631 11.1459 22.108 11.1459 21.9462C11.1459 21.7844 11.2102 21.6292 11.3246 21.5148C11.439 21.4004 11.5942 21.3362 11.7559 21.3362H13.6429C13.8047 21.3362 13.9598 21.4004 14.0742 21.5148C14.1886 21.6292 14.2529 21.7844 14.2529 21.9462C14.2529 22.108 14.1886 22.2631 14.0742 22.3775C13.9598 22.4919 13.8047 22.5562 13.6429 22.5562Z" fill="#556065"/>
<path d="M13.6429 26.8327H10.98C10.8182 26.8327 10.6631 26.7684 10.5487 26.654C10.4343 26.5396 10.37 26.3845 10.37 26.2227C10.37 26.0609 10.4343 25.9057 10.5487 25.7913C10.6631 25.6769 10.8182 25.6127 10.98 25.6127H13.6429C13.8046 25.6127 13.9598 25.6769 14.0742 25.7913C14.1886 25.9057 14.2529 26.0609 14.2529 26.2227C14.2529 26.3845 14.1886 26.5396 14.0742 26.654C13.9598 26.7684 13.8046 26.8327 13.6429 26.8327Z" fill="#556065"/>
<path d="M13.6429 18.2788H10.98C10.8182 18.2788 10.6631 18.2146 10.5487 18.1002C10.4343 17.9858 10.37 17.8306 10.37 17.6688C10.37 17.5071 10.4343 17.3519 10.5487 17.2375C10.6631 17.1231 10.8182 17.0588 10.98 17.0588H13.6429C13.8046 17.0588 13.9598 17.1231 14.0742 17.2375C14.1886 17.3519 14.2529 17.5071 14.2529 17.6688C14.2529 17.8306 14.1886 17.9858 14.0742 18.1002C13.9598 18.2146 13.8046 18.2788 13.6429 18.2788Z" fill="#556065"/>
<path d="M32.8375 27.1759C30.1675 25.982 27.5726 24.6269 25.0669 23.1182C24.8479 22.9887 24.5965 22.9246 24.3422 22.9334C24.0879 22.9423 23.8415 23.0238 23.6321 23.1683C23.4226 23.3128 23.259 23.5142 23.1604 23.7488C23.0619 23.9834 23.0325 24.2412 23.0759 24.4919C23.6721 27.9519 24.8075 33.5321 26.1601 35.2092C26.697 35.8796 27.3768 36.4216 28.1499 36.7956C28.923 37.1697 29.7699 37.3664 30.6287 37.3714C31.4875 37.3764 32.3367 37.1895 33.1141 36.8245C33.8915 36.4594 34.5775 35.9253 35.1222 35.2613C37.3206 32.5797 36.0445 28.5212 32.8375 27.1759Z" fill="#9CC272"/>
<path d="M30.6757 37.9761C29.7185 37.9774 28.7731 37.7639 27.9094 37.3514C27.0457 36.9388 26.2856 36.3376 25.6851 35.5922C24.3024 33.8785 23.1767 28.6667 22.4748 24.5959C22.4114 24.2305 22.4539 23.8546 22.5974 23.5126C22.7409 23.1706 22.9793 22.8768 23.2845 22.6661C23.5897 22.4554 23.9489 22.3365 24.3195 22.3235C24.6902 22.3104 25.0568 22.4039 25.376 22.5927C27.8586 24.0871 30.4294 25.4299 33.0742 26.6138C33.9543 26.984 34.7362 27.5538 35.3582 28.2783C35.9801 29.0027 36.425 29.8618 36.6577 30.7878C36.8752 31.6245 36.8923 32.5007 36.7076 33.3452C36.5229 34.1897 36.1416 34.9788 35.5947 35.6483C35.3171 35.9861 35.0059 36.2949 34.6659 36.5698C33.5361 37.4817 32.1275 37.9781 30.6757 37.9761ZM24.3862 23.5402C24.2405 23.5416 24.0986 23.5873 23.9795 23.6712C23.8648 23.7483 23.7753 23.8574 23.7219 23.9849C23.6686 24.1124 23.6538 24.2527 23.6794 24.3885C24.6229 29.8606 25.7013 33.6654 26.6375 34.8268C27.1175 35.4266 27.7254 35.9115 28.4168 36.2463C29.1082 36.581 29.8656 36.7572 30.6337 36.7618C31.4019 36.7663 32.1614 36.5993 32.8567 36.2729C33.5521 35.9464 34.1657 35.4688 34.6529 34.8748C35.0784 34.3517 35.3747 33.7355 35.5175 33.0764C35.6604 32.4174 35.6459 31.7339 35.4752 31.0814C35.2885 30.3397 34.9319 29.6516 34.4336 29.0713C33.9354 28.491 33.309 28.0345 32.6041 27.7378C29.9087 26.5335 27.289 25.1665 24.7595 23.6443C24.6469 23.5763 24.5178 23.5403 24.3862 23.5402Z" fill="#556065"/>
<path d="M36.4723 38.6008C36.3573 38.6011 36.2445 38.569 36.147 38.508C32.3907 36.1144 29.2858 32.8274 27.11 28.9408C27.0363 28.7967 27.0228 28.6292 27.0725 28.4751C27.1222 28.3211 27.2311 28.1931 27.3752 28.1193C27.5193 28.0455 27.6868 28.032 27.8408 28.0818C27.9949 28.1315 28.1229 28.2404 28.1966 28.3845C30.2869 32.0642 33.2375 35.1829 36.796 37.4735C36.9085 37.5438 36.995 37.6488 37.0424 37.7727C37.0898 37.8965 37.0956 38.0325 37.0588 38.1599C37.022 38.2873 36.9447 38.3993 36.8386 38.4789C36.7325 38.5584 36.6033 38.6012 36.4707 38.6008H36.4723Z" fill="#556065"/>
<path d="M43.3303 43.9411H17.6697C17.5079 43.9411 17.3527 43.8769 17.2383 43.7625C17.1239 43.6481 17.0597 43.4929 17.0597 43.3311V17.6688C17.0597 17.5071 17.1239 17.3519 17.2383 17.2375C17.3527 17.1231 17.5079 17.0588 17.6697 17.0588H43.3303C43.4921 17.0588 43.6473 17.1231 43.7617 17.2375C43.8761 17.3519 43.9403 17.5071 43.9403 17.6688V43.3311C43.9403 43.4929 43.8761 43.6481 43.7617 43.7625C43.6473 43.8769 43.4921 43.9411 43.3303 43.9411ZM18.2797 42.7211H42.7203V18.2788H18.2797V42.7211Z" fill="#556065"/>
</svg>
