<svg xmlns="http://www.w3.org/2000/svg" width="39" height="39" fill="none"><defs/><path fill="#EFB519" fill-rule="evenodd" d="M30.9 22.9c-.4 1.3-1 2.5-1.8 3.6l1.1 1.2.6-.6v3.4h-1l.3.2-.3.3-.6-.5h-1.8l.5-.6-1-1c-1.3.9-2.6 1.6-4 2V34h1.5l-5 5-1.3-1.3v.8h-.9v-1.7L14.5 34h1.6v-3.2c-1.6-.5-3-1.3-4.3-2.3l-1.1 1.1.5.5H7.8v-.9l-.2.3-.3-.3.5-.6V27l.6.5 1.2-1.2C9 25.2 8.4 24 8 22.8H5v1.6l-5-4.9 1.3-1.3H.5v-1h1.7L5 14.7V16h3.2c.3-1.2.8-2.3 1.5-3.3l-1.2-1.2-.5.5V8.8h.9l-.3-.3.3-.3.6.6h1.8l-.5.5 1.1 1c1.3-1 2.7-1.8 4.3-2.2V4.9h-1.6l5-4.9 1.3 1.3V.5h1v1.7L24.3 5H23v3.2c1.3.4 2.6 1 3.8 2l.8-.9-.5-.5h3.3v.9l.3-.3.3.3-.6.6V12l-.5-.5-.8.8c.8 1.2 1.5 2.5 1.9 3.9h3v-1.6l4.9 4.9-1.4 1.3h.8v1h-1.7l-2.7 2.6V23h-3z" clip-rule="evenodd"/><path fill="#E1E1E1" fill-rule="evenodd" d="M21.5 31.8h-4v2.7h4v-2.7zm7.1-2.1l1.4-1.4-1-.9-1.3 1.4.9.9zM8.6 28l1.4 1.3 1-.8-1.5-1.4-.9.9zm25.8-6.6v-4h-2.6v4h2.6zm-27.2 0v-4H4.6v4h2.6zm2.9-12L8.7 11l.9 1 1.3-1.4-.8-1zm19.4 1.3l-1.3-1.3-1 .9 1.4 1.3 1-.9zm-8-6.2h-4v2.6h4V4.6z" clip-rule="evenodd"/><path fill="url(#paint0_linear)" d="M19.5 29.2a9.7 9.7 0 100-19.4 9.7 9.7 0 000 19.4z"/><path stroke="#3B3B3B" stroke-linecap="round" stroke-linejoin="round" stroke-miterlimit="1.5" stroke-width=".6" d="M24.8 13.4L19.5 19"/><path stroke="#000" stroke-linecap="round" stroke-linejoin="round" stroke-miterlimit="1.5" stroke-width="1.6" d="M19.5 19v5-5z" clip-rule="evenodd"/><path fill="#fff" fill-opacity=".5" fill-rule="evenodd" d="M8.7 14.4l1-1.6-1.3-1.2-.5.5V8.8h.9l-.3-.3.3-.3.6.6h1.8l-.5.5 1.1 1c1.3-1 2.7-1.8 4.3-2.2V5h-1.6l5-5 1.3 1.3V.5h1v1.7L24.3 5H23v3.2c1.3.4 2.6 1 3.8 2l.8-.9-.5-.5h3.3v.9l.3-.3.3.3-.6.6V12l-.5-.5-.8.8c.8 1.2 1.5 2.5 1.9 3.9h3v-1.6l4.9 4.9-1.4 1.3h.6a38.8 38.8 0 01-29.3-6.4z" clip-rule="evenodd"/><defs><linearGradient id="paint0_linear" x1="15.3" x2="25.2" y1="27.4" y2="11.3" gradientUnits="userSpaceOnUse"><stop stop-color="#D9DBE0"/><stop offset="1" stop-color="#fff"/></linearGradient></defs></svg>