<svg width="32" height="32" viewBox="0 0 32 32" fill="none" xmlns="http://www.w3.org/2000/svg">
<path d="M20 17C20 18.6569 18.6569 20 17 20C15.3431 20 14 18.6569 14 17C14 15.3431 15.3431 14 17 14C18.6569 14 20 15.3431 20 17Z" fill="#252626"/>
<path d="M24 10.9998C23.8535 10.6026 23.3039 10.2949 23 9.9998C22.7049 9.69592 22.3975 9.14639 22 8.9998C21.6777 8.8746 20.892 9.0404 20 8.9998C19.0352 8.9558 19.4427 8.9998 17 8.9998C14.5571 8.9998 13.9647 8.9558 13 8.9998C12.1081 9.04064 11.3222 8.8746 11 8.9998C10.6026 9.14639 10.2949 9.69592 10 9.9998C9.69617 10.2949 9.14688 10.6023 9.00004 10.9998C8.87485 11.3221 9.04064 12.1079 9.00004 12.9998C8.95604 13.9644 9.00004 14.5569 9.00004 16.9998C9.00004 19.4425 8.95604 19.0349 9.00004 19.9998C9.04064 20.8917 8.87485 21.6774 9.00004 21.9998C9.14688 22.3973 9.69617 22.7047 10 22.9998C10.2952 23.3037 10.6026 23.8532 11 23.9998C11.3224 24.1252 12.1081 23.9592 13 23.9998C13.9647 24.0438 13.5571 23.9998 16 23.9998C18.4432 23.9998 19.0357 24.0438 20 23.9998C20.892 23.9592 21.6777 24.1252 22 23.9998C22.7979 23.692 23.6923 22.7977 24 21.9998C24.1252 21.6774 23.9592 20.8917 24 19.9998C24.044 19.0349 24 19.4425 24 16.9998C24 14.5569 24.044 13.9644 24 12.9998C23.9594 12.1079 24.1255 11.3221 24 10.9998ZM17 20.9998C14.4054 20.9998 12 18.5944 12 15.9998C12 13.4052 14.4054 11.9998 17 11.9998C19.5944 11.9998 21 13.4052 21 15.9998C21 18.5944 19.5944 20.9998 17 20.9998ZM21 12.9998C20.3938 12.9998 20 12.6061 20 11.9998C20 11.3935 20.3938 10.9998 21 10.9998C21.6063 10.9998 22 11.3935 22 11.9998C21.9998 12.6061 21.6063 12.9998 21 12.9998Z" fill="#252626"/>
<path d="M17 1C8.4409 1 1 8.4409 1 17C1 25.5591 8.4409 32 17 32C25.5591 32 32 25.5591 32 17C32 8.4409 25.5591 1 17 1ZM25 20C24.957 20.9475 25.22 21.4338 25 22C24.5376 23.1956 23.1956 24.5376 22 25C21.434 25.22 20.9472 24.9567 20 25C19.0509 25.0433 19.4171 25 17 25C14.5826 25 13.9494 25.0433 13 25C12.0528 24.9567 11.566 25.22 11 25C10.4059 24.7765 9.44464 24.4529 9 24C8.54732 23.5556 8.2235 22.5939 8 22C7.78004 21.434 8.04305 20.9472 8 20C7.95625 19.0506 8 19.4171 8 17C8 14.5829 7.95648 13.9491 8 13C8.04305 12.0525 7.78004 11.5662 8 11C8.2235 10.4061 8.54708 9.4444 9 9C9.4444 8.54708 10.4061 8.2235 11 8C11.5662 7.78004 12.0525 8.04328 13 8C13.9491 7.95672 14.5829 8 17 8C19.4171 8 19.0509 7.95648 20 8C20.9475 8.04305 21.4338 7.78028 22 8C22.5939 8.2235 23.5554 8.54708 24 9C24.4527 9.44464 24.7767 10.4061 25 11C25.2202 11.5662 24.9567 12.0525 25 13C25.0433 13.9491 25 14.5829 25 17C25 19.4171 25.0435 19.0509 25 20Z" fill="#252626"/>
</svg>
