<svg width="49" height="49" viewBox="0 0 49 49" fill="none" xmlns="http://www.w3.org/2000/svg">
<g clip-path="url(#clip0)">
<path d="M20 12C21.22 11.4886 21.551 9.18017 21 7.99997L19 3.99997C18.449 2.85951 17.1806 2.48816 16 2.99997C12.6549 4.4162 9.28256 6.7576 7 8.99997C4.20584 11.6353 3.02321 14.6561 2 18C0.976785 21.3836 0 26.1383 0 32V44C0 45.2982 0.701305 46 2 46H18C19.2987 46 20 45.2982 20 44V28C20 26.7014 19.2987 26 18 26H10C10.0787 22.0262 11.2684 18.4001 13 16C14.4168 14.0731 17.1271 13.2199 20 12Z" fill="white"/>
<path d="M48 12C49.2223 11.4881 49.5516 9.18129 49 8.00002L47 4.00002C46.448 2.85813 45.1829 2.48814 44 3.00002C40.688 4.41755 37.3259 6.79498 35 9.00002C32.2002 11.6776 31.0255 14.6531 30 18C28.9749 21.3072 28 26.0937 28 32V44C28 45.2994 28.6989 46 30 46H46C47.3011 46 48 45.2994 48 44V28C48 26.7002 47.3011 26 46 26H38C38.0789 22.0227 39.2655 18.4023 41 16C42.4194 14.071 45.1217 13.2211 48 12Z" fill="white"/>
</g>
<defs>
<clipPath id="clip0">
<rect width="49" height="49" fill="white"/>
</clipPath>
</defs>
</svg>
