<svg width="31" height="31" viewBox="0 0 31 31" fill="none" xmlns="http://www.w3.org/2000/svg">
<path d="M15.5 0C6.94012 0 0 6.94012 0 15.5C0 24.0599 6.94012 31 15.5 31C24.0599 31 31 24.0599 31 15.5C31 6.93821 24.0599 0 15.5 0ZM19.5067 15.498L16.9667 15.4999L16.9647 24.7999H13.4792V15.5H11.1542V12.2954L13.4792 12.2934L13.4753 10.4063C13.4753 7.79073 14.1844 6.20004 17.2631 6.20004H19.8283V9.40659H18.2241C17.0248 9.40659 16.9667 9.85413 16.9667 10.6892L16.9628 12.2934H19.8457L19.5067 15.498Z" fill="white"/>
</svg>
