<svg width="32" height="32" viewBox="0 0 32 32" fill="none" xmlns="http://www.w3.org/2000/svg">
<path d="M16 32C24.8366 32 32 24.8366 32 16C32 7.16344 24.8366 0 16 0C7.16344 0 0 7.16344 0 16C0 24.8366 7.16344 32 16 32Z" fill="white"/>
<path d="M24.4642 11.2453L24.459 11.2241C24.0315 9.49583 22.1041 7.64133 20.3341 7.25552L20.3141 7.25139C17.4513 6.70527 14.5485 6.70527 11.6862 7.25139L11.6656 7.25552C9.89627 7.64133 7.96884 9.49595 7.54077 11.2241L7.53602 11.2453C7.00752 13.6588 7.00752 16.1066 7.53602 18.5201L7.54077 18.5413C7.95065 20.1958 9.73446 21.9651 11.4384 22.4517V24.381C11.4384 25.0793 12.2893 25.4222 12.7732 24.9183L14.7279 22.8865C15.1519 22.9101 15.5761 22.9234 16.0001 22.9234C17.4412 22.9234 18.883 22.7871 20.3141 22.5141L20.334 22.51C22.104 22.1241 24.0314 20.2695 24.4589 18.5413L24.4641 18.5202C24.9926 16.1066 24.9926 13.659 24.4642 11.2453ZM22.9173 18.1702C22.6318 19.2978 21.1685 20.6995 20.0057 20.9585C18.4835 21.248 16.9492 21.3717 15.4165 21.3293C15.386 21.3284 15.3566 21.3403 15.3355 21.3621C15.1179 21.5854 13.9083 22.8273 13.9083 22.8273L12.3903 24.3853C12.2793 24.501 12.0843 24.4222 12.0843 24.2625V21.0665C12.0843 21.0137 12.0466 20.9689 11.9947 20.9586C11.9944 20.9585 11.9941 20.9585 11.9938 20.9585C10.8311 20.6995 9.36821 19.2977 9.08227 18.1701C8.60659 15.9885 8.60659 13.7769 9.08227 11.5953C9.36821 10.4677 10.8311 9.06595 11.9938 8.80695C14.6523 8.30133 17.3478 8.30133 20.0058 8.80695C21.1691 9.06595 22.6319 10.4677 22.9173 11.5953C23.3935 13.777 23.3935 15.9886 22.9173 18.1702Z" fill="#252626"/>
<path d="M18.5295 19.6456C18.3507 19.5913 18.1804 19.5548 18.0221 19.4893C16.3826 18.8091 14.8739 17.9316 13.6788 16.5865C12.9992 15.8216 12.4673 14.9581 12.0176 14.0442C11.8044 13.6108 11.6247 13.1605 11.4415 12.713C11.2745 12.305 11.5205 11.8835 11.7795 11.576C12.0226 11.2874 12.3354 11.0667 12.6741 10.9039C12.9385 10.7769 13.1993 10.8501 13.3924 11.0742C13.8098 11.5587 14.1933 12.0679 14.5036 12.6296C14.6946 12.975 14.6422 13.3973 14.2961 13.6323C14.212 13.6894 14.1354 13.7566 14.0571 13.8211C13.9883 13.8776 13.9237 13.9348 13.8766 14.0113C13.7905 14.1514 13.7864 14.3167 13.8418 14.469C14.2685 15.6416 14.9876 16.5534 16.168 17.0446C16.3568 17.1232 16.5465 17.2146 16.7641 17.1893C17.1285 17.1468 17.2465 16.747 17.5018 16.5382C17.7514 16.3341 18.0704 16.3314 18.3392 16.5016C18.6081 16.6718 18.8688 16.8544 19.1279 17.0391C19.3823 17.2204 19.6355 17.3976 19.87 17.6043C20.0956 17.8029 20.1733 18.0636 20.0463 18.3331C19.8138 18.8269 19.4753 19.2376 18.9873 19.4999C18.8495 19.5738 18.6848 19.5977 18.5295 19.6456C18.3507 19.5913 18.6848 19.5977 18.5295 19.6456Z" fill="#252626"/>
<path d="M16.0046 10.3392C18.1489 10.3994 19.9102 11.8224 20.2877 13.9424C20.352 14.3037 20.3749 14.6729 20.4035 15.0396C20.4155 15.1938 20.3282 15.3403 20.1618 15.3424C19.9899 15.3444 19.9126 15.2005 19.9014 15.0465C19.8793 14.7414 19.864 14.4348 19.8219 14.1323C19.6 12.5349 18.3262 11.2133 16.7362 10.9297C16.4969 10.887 16.2522 10.8759 16.0097 10.8504C15.8565 10.8344 15.6559 10.8251 15.622 10.6346C15.5935 10.4749 15.7283 10.3478 15.8804 10.3396C15.9215 10.3372 15.9631 10.3391 16.0046 10.3392C18.149 10.3994 15.9631 10.3391 16.0046 10.3392Z" fill="#252626"/>
<path d="M19.2632 14.564C19.2597 14.5908 19.2578 14.6538 19.2421 14.713C19.1852 14.9283 18.8587 14.9552 18.7837 14.738C18.7613 14.6736 18.758 14.6002 18.7579 14.5308C18.7572 14.0767 18.6585 13.6229 18.4294 13.2278C18.194 12.8216 17.8342 12.4803 17.4124 12.2736C17.1573 12.1487 16.8815 12.071 16.6018 12.0248C16.4797 12.0046 16.3562 11.9924 16.2333 11.9753C16.0845 11.9546 16.005 11.8598 16.0122 11.7131C16.0187 11.5758 16.1192 11.4768 16.2689 11.4854C16.761 11.5133 17.2363 11.6198 17.6739 11.8514C18.5635 12.3226 19.0718 13.0662 19.2202 14.0593C19.2269 14.1043 19.2376 14.1488 19.241 14.1939C19.2494 14.3053 19.2547 14.4169 19.2632 14.564C19.2597 14.5907 19.2547 14.4169 19.2632 14.564Z" fill="#252626"/>
<path d="M17.9296 14.5117C17.7502 14.515 17.6542 14.4156 17.6357 14.2512C17.6229 14.1366 17.6126 14.0204 17.5852 13.9087C17.5314 13.6889 17.4146 13.4853 17.2297 13.3506C17.1424 13.287 17.0435 13.2407 16.9399 13.2107C16.8084 13.1727 16.6716 13.1832 16.5404 13.151C16.3979 13.1161 16.319 13.0006 16.3414 12.8669C16.3618 12.7452 16.4802 12.6502 16.6132 12.6599C17.4446 12.7199 18.0388 13.1497 18.1236 14.1284C18.1297 14.1975 18.1367 14.2704 18.1214 14.3366C18.095 14.4495 18.0112 14.5062 17.9296 14.5117C17.7502 14.5149 18.0112 14.5062 17.9296 14.5117Z" fill="#252626"/>
<path d="M24.4641 11.2455L24.4589 11.2244C24.2192 10.2556 23.5081 9.24723 22.6177 8.47998L21.414 9.54673C22.1298 10.117 22.743 10.9071 22.9173 11.5955C23.3935 13.7772 23.3935 15.9887 22.9173 18.1705C22.6319 19.298 21.1684 20.6998 20.0057 20.9588C18.4835 21.2483 16.9492 21.372 15.4165 21.3295C15.386 21.3287 15.3567 21.3405 15.3355 21.3624C15.1179 21.5857 13.9083 22.8275 13.9083 22.8275L12.3903 24.3855C12.2793 24.5013 12.0843 24.4226 12.0843 24.2628V21.0668C12.0843 21.014 12.0466 20.9692 11.9947 20.9589C11.9944 20.9589 11.9942 20.9588 11.9939 20.9588C11.333 20.8116 10.5756 20.2952 9.99211 19.67L8.80273 20.7239C9.54555 21.532 10.5036 22.1852 11.4382 22.4521V24.3814C11.4382 25.0797 12.2892 25.4226 12.773 24.9187L14.7277 22.8869C15.1517 22.9105 15.5758 22.9238 16 22.9238C17.441 22.9238 18.8828 22.7875 20.3139 22.5145L20.3339 22.5104C22.1039 22.1246 24.0312 20.2701 24.4587 18.5418L24.464 18.5207C24.9925 16.1069 24.9925 13.6592 24.4641 11.2455Z" fill="#252626"/>
<path d="M18.5295 19.6453C18.6849 19.5974 18.3508 19.591 18.5295 19.6453V19.6453Z" fill="white"/>
<path d="M19.87 17.6038C19.6355 17.3973 19.3822 17.22 19.1279 17.0387C18.8688 16.854 18.6082 16.6714 18.3392 16.5012C18.0704 16.331 17.7515 16.3337 17.5019 16.5378C17.2465 16.7466 17.1285 17.1463 16.7641 17.1889C16.5465 17.2142 16.3569 17.1227 16.168 17.0442C15.4418 16.7421 14.8908 16.2801 14.4744 15.6968L13.5894 16.4812C13.6194 16.516 13.6481 16.5517 13.6787 16.5861C14.8738 17.9312 16.3826 18.8087 18.0219 19.4888C18.1801 19.5545 18.3505 19.591 18.5293 19.6452C18.6848 19.5973 18.3505 19.5908 18.5293 19.6452C18.6848 19.5973 18.8493 19.5733 18.9872 19.4994C19.4754 19.2372 19.8137 18.8264 20.0462 18.3327C20.1734 18.0632 20.0957 17.8025 19.87 17.6038Z" fill="#252626"/>
<path d="M16.0046 10.3394C16.0065 10.3394 16.0082 10.3395 16.01 10.3395C16.129 10.3438 18.0645 10.3971 16.0046 10.3394Z" fill="white"/>
<path d="M19.0804 11.6147L18.7031 11.9492C19.2961 12.5261 19.7049 13.2906 19.8218 14.132C19.8638 14.4346 19.8792 14.7411 19.9013 15.0462C19.9125 15.2004 19.9897 15.3442 20.1617 15.3422C20.3282 15.3401 20.4155 15.1937 20.4034 15.0394C20.3747 14.6728 20.3519 14.3034 20.2876 13.9422C20.1224 13.0142 19.692 12.2198 19.0804 11.6147Z" fill="#252626"/>
<path d="M19.2201 14.0584C19.1121 13.3348 18.8119 12.7443 18.3133 12.2944L17.937 12.6279C18.1316 12.8006 18.2999 13.0034 18.4295 13.2271C18.6586 13.6222 18.7573 14.076 18.758 14.5301C18.7581 14.5995 18.7615 14.6729 18.7838 14.7374C18.859 14.9547 19.1853 14.9278 19.2422 14.7124C19.258 14.6531 19.2598 14.5901 19.2633 14.5634C19.2598 14.5902 19.2547 14.4164 19.2633 14.5634C19.2547 14.4164 19.2495 14.3047 19.241 14.1932C19.2377 14.1479 19.2269 14.1034 19.2201 14.0584Z" fill="#252626"/>
<path d="M19.263 14.5638C19.2545 14.4166 19.2594 14.5904 19.263 14.5638V14.5638Z" fill="white"/>
<path d="M17.9294 14.5117C17.9322 14.5115 17.9349 14.5101 17.9376 14.5098C17.9301 14.5098 17.9184 14.51 17.9065 14.5104C17.9142 14.5106 17.9213 14.5118 17.9294 14.5117Z" fill="white"/>
<path d="M17.9294 14.5121C17.9213 14.5122 17.9142 14.511 17.9065 14.5107C17.8676 14.5118 17.8276 14.5139 17.9294 14.5121Z" fill="white"/>
<path d="M17.9376 14.5098C17.9348 14.5101 17.9321 14.5115 17.9294 14.5117C17.9504 14.5103 17.9486 14.5098 17.9376 14.5098Z" fill="white"/>
<path d="M17.5507 12.9702L17.1677 13.3097C17.1888 13.3225 17.2095 13.3359 17.2296 13.3505C17.4145 13.4852 17.5313 13.6888 17.5852 13.9086C17.6125 14.0202 17.6227 14.1363 17.6356 14.2511C17.6533 14.4082 17.7425 14.5047 17.9066 14.5103C17.9185 14.51 17.9303 14.5098 17.9377 14.5097C18.0167 14.501 18.0959 14.4456 18.1212 14.3363C18.1365 14.2703 18.1295 14.1972 18.1235 14.1282C18.0758 13.581 17.869 13.2055 17.5507 12.9702Z" fill="#252626"/>
</svg>
